<svg xmlns="http://www.w3.org/2000/svg" viewBox="0 0 800 240" preserveAspectRatio="xMidYMid slice" style="width:100%;height:100%;display:block">
  <defs>
    <linearGradient id="g4sky" x1="0" y1="0" x2="0" y2="1">
      <stop offset="0%" stop-color="#f5c272"/>
      <stop offset="100%" stop-color="#e88d67"/>
    </linearGradient>
    <linearGradient id="g4grd" x1="0" y1="0" x2="0" y2="1">
      <stop offset="0%" stop-color="#3d5a3e"/>
      <stop offset="100%" stop-color="#1a2c1c"/>
    </linearGradient>
    <radialGradient id="g4m" cx="35%" cy="35%" r="65%">
      <stop offset="0%" stop-color="#ffd166"/>
      <stop offset="55%" stop-color="#ef9b3a"/>
      <stop offset="100%" stop-color="#7a2e0e"/>
    </radialGradient>
  </defs>
  <rect width="800" height="240" fill="url(#g4sky)"/>
  <circle cx="640" cy="80" r="42" fill="#fff5d6" opacity="0.85"/>
  <circle cx="640" cy="80" r="120" fill="#fff5d6" opacity="0.18"/>
  <path d="M0 170 L 120 145 L 240 165 L 360 138 L 480 160 L 600 135 L 720 158 L 800 145 L 800 200 L 0 200 Z" fill="#6b3c2a" opacity="0.45"/>
  <rect y="195" width="800" height="45" fill="url(#g4grd)"/>
  <g>
    <path d="M80 195 Q 80 160 85 140" stroke="#3d2415" stroke-width="9" fill="none"/>
    <ellipse cx="80" cy="140" rx="48" ry="38" fill="#2c422d"/>
    <ellipse cx="88" cy="132" rx="34" ry="26" fill="#3d5a3e"/>
    <ellipse cx="65" cy="160" rx="6" ry="8" fill="url(#g4m)"/>
    <ellipse cx="95" cy="158" rx="6" ry="8" fill="url(#g4m)"/>
  </g>
  <g>
    <path d="M210 195 Q 210 155 216 132" stroke="#3d2415" stroke-width="10" fill="none"/>
    <ellipse cx="212" cy="130" rx="55" ry="44" fill="#2c422d"/>
    <ellipse cx="222" cy="120" rx="38" ry="30" fill="#3d5a3e"/>
    <ellipse cx="195" cy="155" rx="7" ry="9" fill="url(#g4m)"/>
    <ellipse cx="232" cy="158" rx="7" ry="9" fill="url(#g4m)"/>
    <ellipse cx="215" cy="170" rx="7" ry="9" fill="url(#g4m)"/>
  </g>
  <g>
    <path d="M360 195 Q 360 158 366 134" stroke="#3d2415" stroke-width="10" fill="none"/>
    <ellipse cx="362" cy="132" rx="52" ry="42" fill="#2c422d"/>
    <ellipse cx="372" cy="124" rx="36" ry="28" fill="#3d5a3e"/>
    <ellipse cx="345" cy="158" rx="7" ry="9" fill="url(#g4m)"/>
    <ellipse cx="382" cy="156" rx="7" ry="9" fill="url(#g4m)"/>
  </g>
  <g>
    <path d="M510 195 Q 510 162 514 142" stroke="#3d2415" stroke-width="9" fill="none"/>
    <ellipse cx="510" cy="140" rx="46" ry="36" fill="#2c422d"/>
    <ellipse cx="518" cy="132" rx="32" ry="24" fill="#3d5a3e"/>
    <ellipse cx="495" cy="160" rx="6" ry="8" fill="url(#g4m)"/>
    <ellipse cx="525" cy="162" rx="6" ry="8" fill="url(#g4m)"/>
  </g>
  <g>
    <path d="M660 195 Q 660 165 664 148" stroke="#3d2415" stroke-width="8" fill="none"/>
    <ellipse cx="660" cy="146" rx="40" ry="32" fill="#2c422d"/>
    <ellipse cx="668" cy="140" rx="28" ry="22" fill="#3d5a3e"/>
  </g>
  <g>
    <path d="M770 195 Q 770 170 774 156" stroke="#3d2415" stroke-width="7" fill="none"/>
    <ellipse cx="770" cy="155" rx="32" ry="26" fill="#2c422d" opacity="0.85"/>
    <ellipse cx="775" cy="150" rx="22" ry="18" fill="#3d5a3e" opacity="0.85"/>
  </g>
</svg>
