<svg xmlns="http://www.w3.org/2000/svg" viewBox="0 0 400 240" preserveAspectRatio="xMidYMid slice" style="width:100%;height:100%;display:block">
  <defs>
    <linearGradient id="g3bg" x1="0" y1="0" x2="1" y2="1">
      <stop offset="0%" stop-color="#fefaf3"/>
      <stop offset="100%" stop-color="#fef3da"/>
    </linearGradient>
    <radialGradient id="g3skin" cx="35%" cy="35%" r="65%">
      <stop offset="0%" stop-color="#ffe28a"/>
      <stop offset="55%" stop-color="#ef9b3a"/>
      <stop offset="100%" stop-color="#7a2e0e"/>
    </radialGradient>
    <radialGradient id="g3flesh" cx="50%" cy="50%" r="60%">
      <stop offset="0%" stop-color="#fff2c8"/>
      <stop offset="60%" stop-color="#ffd166"/>
      <stop offset="100%" stop-color="#e88d3a"/>
    </radialGradient>
  </defs>
  <rect width="400" height="240" fill="url(#g3bg)"/>
  <ellipse cx="115" cy="120" rx="80" ry="100" fill="url(#g3skin)"/>
  <ellipse cx="105" cy="105" rx="22" ry="30" fill="#fff5d6" opacity="0.4"/>
  <path d="M115 22 Q 125 8 138 18" stroke="#5a3a20" stroke-width="4" fill="none" stroke-linecap="round"/>
  <path d="M260 30 Q 270 18 282 24 Q 274 32 262 32 Z" fill="#3d5a3e"/>
  <path d="M270 26 L 270 50" stroke="#5a3a20" stroke-width="3" fill="none"/>
  <ellipse cx="290" cy="125" rx="76" ry="96" fill="url(#g3skin)" opacity="0.55"/>
  <ellipse cx="290" cy="125" rx="64" ry="82" fill="url(#g3flesh)"/>
  <ellipse cx="290" cy="125" rx="22" ry="42" fill="#d4884f"/>
  <ellipse cx="290" cy="125" rx="14" ry="32" fill="#a84a18"/>
  <path d="M278 105 Q 290 95 302 105" stroke="#7a2e0e" stroke-width="2" fill="none" stroke-linecap="round" opacity="0.6"/>
  <path d="M278 145 Q 290 155 302 145" stroke="#7a2e0e" stroke-width="2" fill="none" stroke-linecap="round" opacity="0.6"/>
</svg>
